<?xml version="1.0" encoding="utf-8"?>
<!-- Generator: Adobe Illustrator 16.0.0, SVG Export Plug-In . SVG Version: 6.00 Build 0)  -->
<!DOCTYPE svg PUBLIC "-//W3C//DTD SVG 1.1//EN" "http://www.w3.org/Graphics/SVG/1.1/DTD/svg11.dtd">
<svg version="1.1" id="Слой_1" xmlns="http://www.w3.org/2000/svg" xmlns:xlink="http://www.w3.org/1999/xlink" x="0px" y="0px"
	 width="284px" height="325px" viewBox="0 0 284 325" enable-background="new 0 0 284 325" xml:space="preserve">
<g>
	<g id="XMLID_1_">
		<g>
			<path fill="#828153" d="M78,86.5c0.4-0.3-2.9,6.8-7.3,15.7c-4.5,9-11.1,22.7-14.7,30.5l-3.88,8.55L49.5,147h-5.7
				c-3.2,0-5.8-0.2-5.8-0.5c0-1.31,5.82-11.97,10.89-20.17c0.73-1.17,1.43-2.29,2.11-3.33C57.5,113.2,76.5,87.4,78,86.5z"/>
			<path fill="#828153" d="M236.38,119.27c-4.83-13.01-5.28-14.55-4.58-13.77c0.891,0.96,7.88,12.99,13.4,22.84
				c2.51,4.48,4.71,8.52,5.899,10.86c3.7,7.3,3.5,8.5-1.1,7.8c-3.5-0.5-3.5-0.5-8.5-14C239.41,127.4,237.73,122.89,236.38,119.27z"
				/>
			<path fill="#A5502E" d="M73.29,150.39c7.4-0.18,36.95-0.18,73.46-0.11c1.35,0.01,2.7,0.01,4.07,0.01c0.62,0,1.25,0.01,1.88,0.01
				c0.7,0,1.399,0,2.1,0c44.34,0.11,80.2,0.5,80.2,0.8c0,0.66-1.15,1.09-5.22,1.42c-0.271,0.02-0.54,0.04-0.82,0.05
				c-4.38,0.24-10.32,0.45-18.08,0.64c-0.7,0.01-1.42,0.03-2.149,0.05c-0.33,0-0.671,0.01-1.021,0.02
				c-0.82,0.01-1.66,0.03-2.51,0.05c-0.51,0.01-1.021,0.02-1.54,0.03c-0.36,0.01-0.72,0.01-1.09,0.02
				c-1.011,0.02-2.04,0.04-3.09,0.06c-1.29,0.02-2.62,0.04-3.98,0.06c-14.24,0.24-29.19,0.75-37.14,1.25
				c-0.551,0.03-1.07,0.07-1.551,0.1c-1.409,0.09-2.529,0.17-3.31,0.25c-0.58,0.07-1.25,0.13-2.01,0.19
				c-0.38,0.03-0.78,0.05-1.2,0.08c-10.74,0.58-32.31,0.63-43.85,0.12c-0.06-0.01-0.12-0.01-0.18-0.01
				c-0.46-0.02-0.9-0.04-1.32-0.06c-1.22-0.07-2.3-0.14-3.19-0.22c-0.7-0.06-1.28-0.13-1.75-0.2c-2.5-0.4-9.7-1.5-16-2.4
				s-11.9-1.9-12.5-2.1c0,0,0,0,0-0.01c0,0,0-0.01,0.01-0.01c0.02,0,0.04-0.01,0.09-0.01c0.06-0.01,0.15-0.02,0.29-0.03
				c0.08,0,0.18-0.01,0.29-0.01c0.06,0,0.12-0.01,0.18-0.01c0.19-0.01,0.41-0.01,0.66-0.02C73.11,150.4,73.2,150.4,73.29,150.39z"/>
			<path fill="#FC502E" d="M46.27,125.53c-5.4,8.53-5.08,7.48-3.27,1.97c7.3-21.4,26.5-49.3,45.3-65.5c27.5-23.8,56.9-34.9,82.2-31
				c39.2,5.9,71,43,81.5,94.9c1.1,5.7,2,10.7,1.8,11.2s-2.5-3.2-5.2-8.3c-0.31-0.59-0.63-1.18-0.939-1.77
				c-10.58-19.87-20.84-36.16-31.061-49.12C195.03,50.52,173.67,38,150,38c-32.4,0-65.6,26.5-98,78.4
				C49.62,120.21,47.73,123.22,46.27,125.53z"/>
			<path fill="#FC502E" d="M44.6,150.5c17.5,1.7,41,4.6,49.1,6.1c2,0.36,4.7,0.69,7.84,0.97c15.03,1.37,40.23,1.77,48.26,0.53
				c4-0.6,22.9-1.4,42-1.7c27.65-0.45,34.8-0.73,44.891-2.37c1.18-0.19,2.409-0.4,3.71-0.63c7.6-1.3,14.1-2.3,14.3-2.1
				c0.2,0.2,0.8,29.2,1.3,64.3c0.6,35.101,1.5,68.101,2,73.301c0.8,6.899,0.7,9.699-0.1,10.699c-0.7,0.9-2.801,1.301-5.301,1.2
				c-16.199-0.7-69.399-1.7-133.399-2.3c-66.6-0.7-75.6-1-77.2-2.4c-1.8-1.5-1.9-5.199-2.4-65.6c-0.3-35.2-0.9-67.8-1.2-72.3
				l-0.7-8.4L44.6,150.5z"/>
			<path fill="#773425" d="M239,151.1c0,0.32-0.83,0.6-2.65,0.86c-1.5,0.21-3.659,0.39-6.569,0.56c4.069-0.33,5.22-0.76,5.22-1.42
				c0-0.3-35.86-0.69-80.2-0.8C201.1,150.4,239,150.8,239,151.1z"/>
			<path fill="#231F20" d="M228.96,152.57c-3.66,0.26-9.35,0.45-18.08,0.64C218.64,153.02,224.58,152.81,228.96,152.57z"/>
			<path fill="#231F20" d="M232.9,117.6c-8.12-21.92-11.341-29.69-18.181-38.23l1.88-1.46c10.221,12.96,20.48,29.25,31.061,49.12
				l-2.46,1.31c-5.521-9.85-12.51-21.88-13.4-22.84c-0.7-0.78-0.25,0.76,4.58,13.77l-2.51,0.94
				C233.55,119.35,233.23,118.48,232.9,117.6z"/>
			<path fill="#231F20" d="M210.88,153.21c-0.7,0.02-1.42,0.04-2.149,0.05C209.46,153.24,210.18,153.22,210.88,153.21z"/>
			<path fill="#231F20" d="M205.2,153.33c0.85-0.02,1.689-0.04,2.51-0.05C206.9,153.3,206.06,153.32,205.2,153.33z"/>
			<path fill="#231F20" d="M205.2,153.33c-0.5,0.01-1.021,0.02-1.54,0.03C204.18,153.35,204.69,153.34,205.2,153.33z"/>
			<path fill="#231F20" d="M202.57,153.38c-1,0.03-2.03,0.04-3.09,0.06C200.53,153.42,201.56,153.4,202.57,153.38z"/>
			<path fill="#231F20" d="M199.48,153.44c-0.971,0.02-1.961,0.04-2.98,0.06c-14.8,0.24-29.98,0.79-38.14,1.25
				c7.949-0.5,22.899-1.01,37.14-1.25C196.86,153.48,198.19,153.46,199.48,153.44z"/>
			<path fill="#773425" d="M154.8,150.3c-0.7,0-1.399,0-2.1,0c-0.63,0-1.26-0.01-1.88-0.01C152.14,150.29,153.47,150.3,154.8,150.3z
				"/>
			<path fill="#773425" d="M153.5,155.1c0.78-0.08,1.9-0.16,3.31-0.25c-1.159,0.09-2.109,0.17-2.81,0.25
				c-0.72,0.07-1.56,0.13-2.51,0.19C152.25,155.23,152.92,155.17,153.5,155.1z"/>
			<path fill="#231F20" d="M150.29,155.37c-10.27,0.64-32.17,0.66-43.85,0.12C117.98,156,139.55,155.95,150.29,155.37z"/>
			<path fill="#231F20" d="M73.29,150.39c7.44-0.2,37.11-0.26,73.46-0.11C110.24,150.21,80.69,150.21,73.29,150.39z"/>
			<path fill="#231F20" d="M106.26,155.48c-0.46-0.02-0.9-0.04-1.32-0.06C105.36,155.44,105.8,155.46,106.26,155.48z"/>
			<path fill="#231F20" d="M149.8,158.1c-8.03,1.24-33.23,0.84-48.26-0.53l0.21-2.37c0.89,0.08,1.97,0.15,3.19,0.22
				c0.42,0.02,0.86,0.04,1.32,0.06c0.06,0,0.12,0,0.18,0.01c11.68,0.54,33.58,0.52,43.85-0.12c0.42-0.03,0.82-0.05,1.2-0.08
				c0.95-0.06,1.79-0.12,2.51-0.19c0.7-0.08,1.65-0.16,2.81-0.25c0.48-0.03,1-0.07,1.551-0.1c8.159-0.46,23.34-1.01,38.14-1.25
				c1.02-0.02,2.01-0.04,2.98-0.06c1.06-0.02,2.09-0.03,3.09-0.06c0.37-0.01,0.729-0.01,1.09-0.02c0.52-0.01,1.04-0.02,1.54-0.03
				c0.859-0.01,1.7-0.03,2.51-0.05c0.35-0.01,0.69-0.02,1.021-0.02c0.729-0.01,1.449-0.03,2.149-0.05
				c8.73-0.19,14.42-0.38,18.08-0.64c0.28-0.01,0.55-0.03,0.82-0.05c2.91-0.17,5.069-0.35,6.569-0.56l0.341,2.07
				c-10.091,1.64-17.24,1.92-44.891,2.37C172.7,156.7,153.8,157.5,149.8,158.1z"/>
			<path fill="#231F20" d="M73.02,150.4c-0.25,0.01-0.47,0.01-0.66,0.02C72.55,150.41,72.77,150.4,73.02,150.4z"/>
			<path fill="#231F20" d="M72.18,150.43c-0.11,0-0.21,0.01-0.29,0.01C71.97,150.43,72.07,150.43,72.18,150.43z"/>
			<path fill="#231F20" d="M71.6,150.47c-0.05,0-0.07,0.01-0.09,0.01C71.53,150.47,71.56,150.47,71.6,150.47z"/>
			<path fill="#231F20" d="M71.51,150.48c-0.01,0-0.01,0.01-0.01,0.01L71.51,150.48z"/>
			<path fill="#231F20" d="M71.5,150.49c0,0.01,0,0.01,0,0.01C71.49,150.49,71.49,150.49,71.5,150.49z"/>
			<path fill="#231F20" d="M51,123c-0.68,1.04-1.38,2.16-2.11,3.33l-2.62-0.8c1.46-2.31,3.35-5.32,5.73-9.13
				C84.4,64.5,117.6,38,150,38c23.67,0,45.03,12.52,66.6,39.91l-1.88,1.46c-2.68-3.34-5.92-6.8-10.22-11.27
				c-18.4-19-34.9-27.5-54-27.4c-10.7,0-19.1,2.1-28.9,7c-16.9,8.5-27.5,17.8-35.2,31c-5.08,8.52-26.9,52.35-31.92,63.62l-2.36-1.07
				L56,132.7c3.6-7.8,10.2-21.5,14.7-30.5c4.4-8.9,7.7-16,7.3-15.7C76.5,87.4,57.5,113.2,51,123z"/>
			<path fill="#231F20" d="M48.89,126.33C43.82,134.53,38,145.19,38,146.5c0,0.3,2.6,0.5,5.8,0.5h5.7l2.62-5.75l2.36,1.07
				c-0.52,1.17-0.86,1.99-0.98,2.38l-0.6,2.3l73.3,0.3c40.3,0.1,83.399,0.3,95.7,0.5c20.899,0.2,22.3,0.1,21.6-1.5
				c-0.28-0.94-4.55-12.41-9.63-26.09l2.51-0.94c1.351,3.62,3.03,8.13,5.12,13.73c5,13.5,5,13.5,8.5,14c4.6,0.7,4.8-0.5,1.1-7.8
				c-1.189-2.34-3.39-6.38-5.899-10.86l2.46-1.31c0.31,0.59,0.63,1.18,0.939,1.77c2.7,5.1,5,8.8,5.2,8.3s-0.7-5.5-1.8-11.2
				c-10.5-51.9-42.3-89-81.5-94.9c-25.3-3.9-54.7,7.2-82.2,31c-18.8,16.2-38,44.1-45.3,65.5c-1.81,5.51-2.13,6.56,3.27-1.97
				L48.89,126.33z M38.4,158.2c0.3,4.5,0.9,37.1,1.2,72.3c0.5,60.4,0.6,64.1,2.4,65.6c1.6,1.4,10.6,1.7,77.2,2.4
				c64,0.6,117.2,1.6,133.399,2.3c2.5,0.101,4.601-0.3,5.301-1.2c0.8-1,0.899-3.8,0.1-10.699c-0.5-5.2-1.4-38.2-2-73.301
				c-0.5-35.1-1.1-64.1-1.3-64.3c-0.2-0.2-6.7,0.8-14.3,2.1c-1.301,0.23-2.53,0.44-3.71,0.63l-0.341-2.07
				c1.82-0.26,2.65-0.54,2.65-0.86c0-0.3-37.9-0.7-84.2-0.8c-1.33,0-2.66-0.01-3.979-0.01c-1.37,0-2.721,0-4.07-0.01
				c-36.35-0.15-66.02-0.09-73.46,0.11c-0.09,0.01-0.18,0.01-0.27,0.01c-0.25,0-0.47,0.01-0.66,0.02c-0.06,0-0.12,0.01-0.18,0.01
				c-0.11,0-0.21,0-0.29,0.01c-0.14,0.01-0.23,0.02-0.29,0.03c-0.04,0-0.07,0-0.09,0.01l-0.01,0.01c-0.01,0-0.01,0,0,0.01
				c0.6,0.2,6.2,1.2,12.5,2.1s13.5,2,16,2.4c0.47,0.07,1.05,0.14,1.75,0.2l-0.21,2.37c-3.14-0.28-5.84-0.61-7.84-0.97
				c-8.1-1.5-31.6-4.4-49.1-6.1l-6.9-0.7L38.4,158.2z M37.5,277.4c0-10.4-0.7-43.9-1.4-74.5L34.7,147.3l2.2-8.9
				c6.1-24.3,19.6-47.5,40-68.7c14.3-14.7,25.2-23,40.6-30.7c35.1-17.4,65.1-14.9,93.7,7.9c19.399,15.4,33.899,40,41.7,70.9
				c4.399,17.1,4.899,26.9,6.1,101.5c0.7,45.4,1.5,72.8,2.2,74.8c2,5.7-1.9,9.9-9.101,9.9c-1.5,0-3-0.2-3.199-0.4
				C248.3,303,134,300.9,85.3,300.7c-41-0.2-42.3-0.3-45-2.3l-2.8-2.101V277.4z"/>
		</g>
		<g>
		</g>
	</g>
</g>
</svg>
