<svg version="1.0" viewBox="0 0 284 325">
  <defs/>
  <path fill="#fff" d="M0 162.5V0h284v325H0V162.5z"/>
  <path fill="#828153" d="M248.9 303.6c-.6-.6-114.9-2.7-163.6-2.9-41-.2-42.3-.3-45-2.3l-2.8-2.1v-18.9c0-10.4-.7-43.9-1.4-74.5l-1.4-55.6 2.2-8.9c6.1-24.3 19.6-47.5 40-68.7 14.3-14.7 25.2-23 40.6-30.7 35.1-17.4 65.1-14.9 93.7 7.9 19.4 15.4 33.9 40 41.7 70.9 4.4 17.1 4.9 26.9 6.1 101.5.7 45.4 1.5 72.8 2.2 74.8 2 5.7-1.9 9.9-9.1 9.9-1.5 0-3-.2-3.2-.4zm-5.4-157.3c-.3-1-5.1-13.9-10.6-28.7-11.3-30.5-13.1-33.6-28.4-49.5-18.4-19-34.9-27.5-54-27.4-10.7 0-19.1 2.1-28.9 7-16.9 8.5-27.5 17.8-35.2 31-5.6 9.4-31.6 61.8-32.9 66l-.6 2.3 73.3.3c40.3.1 83.4.3 95.7.5 20.9.2 22.3.1 21.6-1.5z"/>
  <path fill="#fc502e" d="M248.9 303.6c-.6-.6-114.9-2.7-163.6-2.9-41-.2-42.3-.3-45-2.3l-2.8-2.1v-18.9c0-10.4-.7-43.9-1.4-74.5l-1.4-55.6 2.2-8.9c6.1-24.3 19.6-47.5 40-68.7 14.3-14.7 25.2-23 40.6-30.7 35.1-17.4 65.1-14.9 93.7 7.9 19.4 15.4 33.9 40 41.7 70.9 4.4 17.1 4.9 26.9 6.1 101.5.7 45.4 1.5 72.8 2.2 74.8 2 5.7-1.9 9.9-9.1 9.9-1.5 0-3-.2-3.2-.4zm-5.4-157.3c-.3-1-5.1-13.9-10.6-28.7-11.3-30.5-13.1-33.6-28.4-49.5-18.4-19-34.9-27.5-54-27.4-10.7 0-19.1 2.1-28.9 7-16.9 8.5-27.5 17.8-35.2 31-5.6 9.4-31.6 61.8-32.9 66l-.6 2.3 73.3.3c40.3.1 83.4.3 95.7.5 20.9.2 22.3.1 21.6-1.5zm7.6-7.1c-3.8-7.5-18-32.3-19.3-33.7-.9-1 .1 1.8 9.7 27.5 5 13.5 5 13.5 8.5 14 4.6.7 4.8-.5 1.1-7.8zM56 132.7c3.6-7.8 10.2-21.5 14.7-30.5 4.4-8.9 7.7-16 7.3-15.7-1.5.9-20.5 26.7-27 36.5-5.4 8.3-13 22-13 23.5 0 .3 2.6.5 5.8.5h5.7l6.5-14.3z"/>
  <path fill="#d94e31" d="M248.9 303.6c-.6-.6-114.9-2.7-163.6-2.9-41-.2-42.3-.3-45-2.3l-2.8-2.1v-18.9c0-10.4-.7-43.9-1.4-74.5l-1.4-55.6 2.2-8.9c6.1-24.3 19.6-47.5 40-68.7 14.3-14.7 25.2-23 40.6-30.7 35.1-17.4 65.1-14.9 93.7 7.9 19.4 15.4 33.9 40 41.7 70.9 4.4 17.1 4.9 26.9 6.1 101.5.7 45.4 1.5 72.8 2.2 74.8 2 5.7-1.9 9.9-9.1 9.9-1.5 0-3-.2-3.2-.4zm9-4c.8-1 .9-3.8.1-10.7-.5-5.2-1.4-38.2-2-73.3-.5-35.1-1.1-64.1-1.3-64.3-.2-.2-6.7.8-14.3 2.1-12.4 2.2-17.7 2.5-48.6 3-19.1.3-38 1.1-42 1.7-9.7 1.5-44.5.6-56.1-1.5-8.1-1.5-31.6-4.4-49.1-6.1l-6.9-.7.7 8.4c.3 4.5.9 37.1 1.2 72.3.6 74.6-.7 67.5 12.5 67.5 4.6 0 7.9-.4 7.9-1 0-.5 1.8-1 4-1s4 .5 4 1c0 .6 2.8 1 6.5 1s6.5-.4 6.5-1c0-1.2 24.7-1.4 25.2-.1.4 1.1 51.8 2.2 51.8 1 0-1.1 13.7-1.2 14.2-.1.5 1.3 41.8 2.4 41.8 1.2 0-.6 2.5-1 5.5-1 3.2 0 5.5.4 5.5 1.1 0 .7 4 .9 12 .7 6.6-.2 12 0 12 .5 0 1.3 7.7.7 8.9-.7zM76.8 150.3c-1-.2-2.8-.2-4 0-1.3.2-.5.4 1.7.4 2.2.1 3.2-.1 2.3-.4zm166.7-4c-.3-1-5.1-13.9-10.6-28.7-11.3-30.5-13.1-33.6-28.4-49.5-18.4-19-34.9-27.5-54-27.4-10.7 0-19.1 2.1-28.9 7-16.9 8.5-27.5 17.8-35.2 31-5.6 9.4-31.6 61.8-32.9 66l-.6 2.3 73.3.3c40.3.1 83.4.3 95.7.5 20.9.2 22.3.1 21.6-1.5zm7.6-7.1c-3.8-7.5-18-32.3-19.3-33.7-.9-1 .1 1.8 9.7 27.5 5 13.5 5 13.5 8.5 14 4.6.7 4.8-.5 1.1-7.8zM56 132.7c3.6-7.8 10.2-21.5 14.7-30.5 4.4-8.9 7.7-16 7.3-15.7-1.5.9-20.5 26.7-27 36.5-5.4 8.3-13 22-13 23.5 0 .3 2.6.5 5.8.5h5.7l6.5-14.3z"/>
  <path fill="#a9482b" d="M248.9 303.6c-.6-.6-114.9-2.7-163.6-2.9-41-.2-42.3-.3-45-2.3l-2.8-2.1v-18.9c0-10.4-.7-43.9-1.4-74.5l-1.4-55.6 2.2-8.9c6.1-24.3 19.6-47.5 40-68.7 14.3-14.7 25.2-23 40.6-30.7 35.1-17.4 65.1-14.9 93.7 7.9 19.4 15.4 33.9 40 41.7 70.9 4.4 17.1 4.9 26.9 6.1 101.5.7 45.4 1.5 72.8 2.2 74.8 2 5.7-1.9 9.9-9.1 9.9-1.5 0-3-.2-3.2-.4zm9-4c.8-1 .9-3.8.1-10.7-.5-5.2-1.4-38.2-2-73.3-.5-35.1-1.1-64.1-1.3-64.3-.2-.2-6.7.8-14.3 2.1-12.4 2.2-17.7 2.5-48.6 3-19.1.3-38 1.1-42 1.7-9.7 1.5-44.5.6-56.1-1.5-8.1-1.5-31.6-4.4-49.1-6.1l-6.9-.7.7 8.4c.3 4.5.9 37.1 1.2 72.3.5 60.4.6 64.1 2.4 65.6 1.6 1.4 10.6 1.7 77.2 2.4 64 .6 117.2 1.6 133.4 2.3 2.5.1 4.6-.3 5.3-1.2zM76.8 150.3c-1-.2-2.8-.2-4 0-1.3.2-.5.4 1.7.4 2.2.1 3.2-.1 2.3-.4zm166.7-4c-.3-1-5.1-13.9-10.6-28.7-11.3-30.5-13.1-33.6-28.4-49.5-18.4-19-34.9-27.5-54-27.4-10.7 0-19.1 2.1-28.9 7-16.9 8.5-27.5 17.8-35.2 31-5.6 9.4-31.6 61.8-32.9 66l-.6 2.3 73.3.3c40.3.1 83.4.3 95.7.5 20.9.2 22.3.1 21.6-1.5zm7.6-7.1c-3.8-7.5-18-32.3-19.3-33.7-.9-1 .1 1.8 9.7 27.5 5 13.5 5 13.5 8.5 14 4.6.7 4.8-.5 1.1-7.8zM56 132.7c3.6-7.8 10.2-21.5 14.7-30.5 4.4-8.9 7.7-16 7.3-15.7-1.5.9-20.5 26.7-27 36.5-5.4 8.3-13 22-13 23.5 0 .3 2.6.5 5.8.5h5.7l6.5-14.3zm196-6.8c-10.5-51.9-42.3-89-81.5-94.9-25.3-3.9-54.7 7.2-82.2 31-18.8 16.2-38 44.1-45.3 65.5-2.3 7-2.2 6.8 9-11.1 16.2-25.9 32.2-45.1 48.4-58.2C115.5 46.1 134 38 146.7 38c3.5 0 5.3-.4 5.4-1.2 0-1 .2-1 .6 0 .2.6 1.7 1.2 3.2 1.2 4.5 0 14.2 2.9 22 6.6 24.1 11.3 46 37.5 70.7 84.2 2.7 5.1 5 8.8 5.2 8.3.2-.5-.7-5.5-1.8-11.2z"/>
  <path fill="#8e462b" d="M248.9 303.6c-.6-.6-114.9-2.7-163.6-2.9-41-.2-42.3-.3-45-2.3l-2.8-2.1v-18.9c0-10.4-.7-43.9-1.4-74.5l-1.4-55.6 2.2-8.9c6.1-24.3 19.6-47.5 40-68.7 14.3-14.7 25.2-23 40.6-30.7 35.1-17.4 65.1-14.9 93.7 7.9 19.4 15.4 33.9 40 41.7 70.9 4.4 17.1 4.9 26.9 6.1 101.5.7 45.4 1.5 72.8 2.2 74.8 2 5.7-1.9 9.9-9.1 9.9-1.5 0-3-.2-3.2-.4zm9-4c.8-1 .9-3.8.1-10.7-.5-5.2-1.4-38.2-2-73.3-.5-35.1-1.1-64.1-1.3-64.3-.2-.2-6.7.8-14.3 2.1-12.4 2.2-17.7 2.5-48.6 3-19.1.3-38 1.1-42 1.7-9.7 1.5-44.5.6-56.1-1.5-8.1-1.5-31.6-4.4-49.1-6.1l-6.9-.7.7 8.4c.3 4.5.9 37.1 1.2 72.3.5 60.4.6 64.1 2.4 65.6 1.6 1.4 10.6 1.7 77.2 2.4 64 .6 117.2 1.6 133.4 2.3 2.5.1 4.6-.3 5.3-1.2zM108.7 154.8c.6 1.5 37.3 1.8 37.3.2 0-.6 1.5-.8 4-.4 2.3.4 4 .3 4-.3s5-.8 13.1-.5c9.5.3 13.3.1 13.8-.7.6-.9 6.1-1 22.3-.4 21.9.8 24.8.7 24.8-.6 0-1.4-28-2.1-88.7-2.1-44.2 0-60.3.3-60.3 1.1s1.4 1 4 .6c2.4-.3 4-.1 4 .5s1.1.8 2.5.6c1.4-.3 2.5-.2 2.5.2s1.1 1 2.5 1.2c1.4.3 2.5.1 2.5-.6 0-.8.3-.7.8.1 1 1.5 6.3 2.1 8.6.8 1.3-.7 2-.7 2.3.3zM78 151c0-.5-1.7-.9-3.7-.9l-3.8.2 3.5.7c1.9.4 3.6.8 3.8.9.1 0 .2-.3.2-.9zm165.5-4.7c-.3-1-5.1-13.9-10.6-28.7-11.3-30.5-13.1-33.6-28.4-49.5-18.4-19-34.9-27.5-54-27.4-10.7 0-19.1 2.1-28.9 7-16.9 8.5-27.5 17.8-35.2 31-5.6 9.4-31.6 61.8-32.9 66l-.6 2.3 73.3.3c40.3.1 83.4.3 95.7.5 20.9.2 22.3.1 21.6-1.5zm7.6-7.1c-3.8-7.5-18-32.3-19.3-33.7-.9-1 .1 1.8 9.7 27.5 5 13.5 5 13.5 8.5 14 4.6.7 4.8-.5 1.1-7.8zM56 132.7c3.6-7.8 10.2-21.5 14.7-30.5 4.4-8.9 7.7-16 7.3-15.7-1.5.9-20.5 26.7-27 36.5-5.4 8.3-13 22-13 23.5 0 .3 2.6.5 5.8.5h5.7l6.5-14.3zm196-6.8c-10.5-51.9-42.3-89-81.5-94.9-25.3-3.9-54.7 7.2-82.2 31-18.8 16.2-38 44.1-45.3 65.5-2.3 7-2.2 6.8 9-11.1C84.4 64.5 117.6 38 150 38c35.2 0 65.3 27.7 98.6 90.8 2.7 5.1 5 8.8 5.2 8.3.2-.5-.7-5.5-1.8-11.2z"/>
  <path fill="#773425" d="M248.9 303.6c-.6-.6-114.9-2.7-163.6-2.9-41-.2-42.3-.3-45-2.3l-2.8-2.1v-18.9c0-10.4-.7-43.9-1.4-74.5l-1.4-55.6 2.2-8.9c6.1-24.3 19.6-47.5 40-68.7 14.3-14.7 25.2-23 40.6-30.7 35.1-17.4 65.1-14.9 93.7 7.9 19.4 15.4 33.9 40 41.7 70.9 4.4 17.1 4.9 26.9 6.1 101.5.7 45.4 1.5 72.8 2.2 74.8 2 5.7-1.9 9.9-9.1 9.9-1.5 0-3-.2-3.2-.4zm9-4c.8-1 .9-3.8.1-10.7-.5-5.2-1.4-38.2-2-73.3-.5-35.1-1.1-64.1-1.3-64.3-.2-.2-6.7.8-14.3 2.1-12.4 2.2-17.7 2.5-48.6 3-19.1.3-38 1.1-42 1.7-9.7 1.5-44.5.6-56.1-1.5-8.1-1.5-31.6-4.4-49.1-6.1l-6.9-.7.7 8.4c.3 4.5.9 37.1 1.2 72.3.5 60.4.6 64.1 2.4 65.6 1.6 1.4 10.6 1.7 77.2 2.4 64 .6 117.2 1.6 133.4 2.3 2.5.1 4.6-.3 5.3-1.2zM153.5 155.1c5-.5 24.3-1.3 43-1.6 32.6-.6 38.5-.9 38.5-2.4 0-.3-37-.7-82.3-.8-45.2-.2-81.7-.1-81.2.2.6.2 6.2 1.2 12.5 2.1 6.3.9 13.5 2 16 2.4 7.3 1.1 43.8 1.2 53.5.1zm90-8.8c-.3-1-5.1-13.9-10.6-28.7-11.3-30.5-13.1-33.6-28.4-49.5-18.4-19-34.9-27.5-54-27.4-10.7 0-19.1 2.1-28.9 7-16.9 8.5-27.5 17.8-35.2 31-5.6 9.4-31.6 61.8-32.9 66l-.6 2.3 73.3.3c40.3.1 83.4.3 95.7.5 20.9.2 22.3.1 21.6-1.5zm7.6-7.1c-3.8-7.5-18-32.3-19.3-33.7-.9-1 .1 1.8 9.7 27.5 5 13.5 5 13.5 8.5 14 4.6.7 4.8-.5 1.1-7.8zM56 132.7c3.6-7.8 10.2-21.5 14.7-30.5 4.4-8.9 7.7-16 7.3-15.7-1.5.9-20.5 26.7-27 36.5-5.4 8.3-13 22-13 23.5 0 .3 2.6.5 5.8.5h5.7l6.5-14.3zm196-6.8c-10.5-51.9-42.3-89-81.5-94.9-25.3-3.9-54.7 7.2-82.2 31-18.8 16.2-38 44.1-45.3 65.5-2.3 7-2.2 6.8 9-11.1C84.4 64.5 117.6 38 150 38c35.2 0 65.3 27.7 98.6 90.8 2.7 5.1 5 8.8 5.2 8.3.2-.5-.7-5.5-1.8-11.2z"/>
  <path fill="#231f20" d="M248.9 303.6c-.6-.6-114.9-2.7-163.6-2.9-41-.2-42.3-.3-45-2.3l-2.8-2.1v-18.9c0-10.4-.7-43.9-1.4-74.5l-1.4-55.6 2.2-8.9c6.1-24.3 19.6-47.5 40-68.7 14.3-14.7 25.2-23 40.6-30.7 35.1-17.4 65.1-14.9 93.7 7.9 19.4 15.4 33.9 40 41.7 70.9 4.4 17.1 4.9 26.9 6.1 101.5.7 45.4 1.5 72.8 2.2 74.8 2 5.7-1.9 9.9-9.1 9.9-1.5 0-3-.2-3.2-.4zm9-4c.8-1 .9-3.8.1-10.7-.5-5.2-1.4-38.2-2-73.3-.5-35.1-1.1-64.1-1.3-64.3-.2-.2-6.7.8-14.3 2.1-12.4 2.2-17.7 2.5-48.6 3-19.1.3-38 1.1-42 1.7-9.7 1.5-44.5.6-56.1-1.5-8.1-1.5-31.6-4.4-49.1-6.1l-6.9-.7.7 8.4c.3 4.5.9 37.1 1.2 72.3.5 60.4.6 64.1 2.4 65.6 1.6 1.4 10.6 1.7 77.2 2.4 64 .6 117.2 1.6 133.4 2.3 2.5.1 4.6-.3 5.3-1.2zM154 155.1c5.2-.6 23.9-1.3 41.5-1.6 31.7-.5 43.5-1.2 43.5-2.4 0-.3-37.9-.7-84.2-.8-46.4-.1-83.8-.1-83.3.2.6.2 6.2 1.2 12.5 2.1 6.3.9 13.5 2 16 2.4 7.3 1.1 43.7 1.1 54 .1zm89.5-8.8c-.3-1-5.1-13.9-10.6-28.7-11.3-30.5-13.1-33.6-28.4-49.5-18.4-19-34.9-27.5-54-27.4-10.7 0-19.1 2.1-28.9 7-16.9 8.5-27.5 17.8-35.2 31-5.6 9.4-31.6 61.8-32.9 66l-.6 2.3 73.3.3c40.3.1 83.4.3 95.7.5 20.9.2 22.3.1 21.6-1.5zm7.6-7.1c-3.8-7.5-18-32.3-19.3-33.7-.9-1 .1 1.8 9.7 27.5 5 13.5 5 13.5 8.5 14 4.6.7 4.8-.5 1.1-7.8zM56 132.7c3.6-7.8 10.2-21.5 14.7-30.5 4.4-8.9 7.7-16 7.3-15.7-1.5.9-20.5 26.7-27 36.5-5.4 8.3-13 22-13 23.5 0 .3 2.6.5 5.8.5h5.7l6.5-14.3zm196-6.8c-10.5-51.9-42.3-89-81.5-94.9-25.3-3.9-54.7 7.2-82.2 31-18.8 16.2-38 44.1-45.3 65.5-2.3 7-2.2 6.8 9-11.1C84.4 64.5 117.6 38 150 38c35.2 0 65.3 27.7 98.6 90.8 2.7 5.1 5 8.8 5.2 8.3.2-.5-.7-5.5-1.8-11.2z"/>
</svg>
